<svg width="64" height="64" viewBox="0 0 64 64" fill="none" xmlns="http://www.w3.org/2000/svg">
<path d="M51 29.997C46.589 29.997 43 33.586 43 37.997V39.458C41.229 38.825 37.803 37.997 32 37.997C26.197 37.997 22.772 38.825 21 39.458V37.997C21 33.586 17.411 29.997 13 29.997C10.243 29.997 8 32.24 8 34.997C8 37.022 9.208 38.835 11.079 39.614C11.639 39.849 12 40.392 12 40.997L13 44.997C13 48.587 15.719 51.552 19.206 51.949C18.385 52.341 17.813 53.173 17.813 54.143C17.813 55.489 18.905 56.581 20.251 56.581C21.597 56.581 22.689 55.489 22.689 54.143C22.689 53.209 22.157 52.407 21.385 51.997H42.618C41.846 52.406 41.314 53.208 41.314 54.143C41.314 55.489 42.406 56.581 43.752 56.581C45.098 56.581 46.19 55.489 46.19 54.143C46.19 53.173 45.618 52.341 44.797 51.949C48.281 51.552 51 48.587 51 44.997L52 40.997C52 40.391 52.361 39.849 52.921 39.614C54.792 38.836 56 37.022 56 34.997C56 32.24 53.757 29.997 51 29.997Z" fill="black"/>
<path d="M23.75 35.659C25.831 35.279 28.54 34.997 32 34.997C35.46 34.997 38.169 35.279 40.25 35.659C41.036 32.039 43.614 29.085 47.001 27.758V22.42C47.001 14.136 40.285 7.41998 32 7.41998C23.716 7.41998 17 14.136 17 22.42V27.759C20.387 29.086 22.964 32.04 23.75 35.659Z" fill="black"/>
</svg>
